<svg id="레이어_1" data-name="레이어 1" xmlns="http://www.w3.org/2000/svg" viewBox="0 0 477.67 97.53"><defs><style>.cls-1{fill:#3a3a3a;}.cls-2{fill:#ff5933;}</style></defs><path class="cls-1" d="M135.27,74.37v-10h32.28a5.94,5.94,0,0,0,5.9-5.89,5.76,5.76,0,0,0-1.74-4.23,5.83,5.83,0,0,0-4.16-1.66l-18.29-.07a15.24,15.24,0,0,1-11.19-4.61,15.31,15.31,0,0,1-4.69-11.25,15.07,15.07,0,0,1,4.69-11.17,15.11,15.11,0,0,1,11.19-4.68h27.89v10H149.26a5.94,5.94,0,0,0-5.9,5.89,5.76,5.76,0,0,0,1.74,4.23,5.67,5.67,0,0,0,4.16,1.74h18.29a15.9,15.9,0,0,1,11.27,27.1,15.51,15.51,0,0,1-11.27,4.61Z"/><path class="cls-1" d="M197.54,52.62a17.13,17.13,0,0,0,6,8.46,16.47,16.47,0,0,0,10.06,3.32,21.32,21.32,0,0,0,8.92-2A15.88,15.88,0,0,0,229.37,57l8.24,5.59a25.12,25.12,0,0,1-10.36,8.53,31.24,31.24,0,0,1-13.68,3.25,25.87,25.87,0,0,1-19-7.86,25.7,25.7,0,0,1-7.86-18.87,25.82,25.82,0,0,1,7.86-18.95,26.77,26.77,0,0,1,37.88,0,25.82,25.82,0,0,1,7.86,19,26.77,26.77,0,0,1-.45,4.91Zm16-21.82a16.41,16.41,0,0,0-10.06,3.33,17.06,17.06,0,0,0-6,8.53h32a17.06,17.06,0,0,0-6-8.53A16.29,16.29,0,0,0,213.57,30.8Z"/><path class="cls-1" d="M300.63,74.29h-10v-6A26.7,26.7,0,0,1,247,47.64a25.82,25.82,0,0,1,7.86-18.95,26.77,26.77,0,0,1,37.88,0,25.82,25.82,0,0,1,7.86,19ZM273.79,64.4a16.46,16.46,0,0,0,11.95-4.91,16.15,16.15,0,0,0,4.91-11.85A16.76,16.76,0,0,0,273.79,30.8a16.19,16.19,0,0,0-11.87,4.91A16.41,16.41,0,0,0,257,47.64,16.76,16.76,0,0,0,273.79,64.4Z"/><path class="cls-1" d="M309.22,74.37v-10H341.5a5.94,5.94,0,0,0,5.9-5.89,5.76,5.76,0,0,0-1.74-4.23,5.85,5.85,0,0,0-4.16-1.66l-18.3-.07A15.23,15.23,0,0,1,312,47.94a15.31,15.31,0,0,1-4.69-11.25A15.07,15.07,0,0,1,312,25.52a15.1,15.1,0,0,1,11.18-4.68h27.9v10H323.2a5.94,5.94,0,0,0-5.89,5.89,5.76,5.76,0,0,0,1.74,4.23,5.66,5.66,0,0,0,4.15,1.74h18.3a15.9,15.9,0,0,1,11.27,27.1,15.51,15.51,0,0,1-11.27,4.61Z"/><path class="cls-1" d="M371.64,66.51a25.67,25.67,0,0,1-7.87-18.87,25.79,25.79,0,0,1,7.87-18.95,26.76,26.76,0,0,1,37.87,0,25.82,25.82,0,0,1,7.86,19,25.7,25.7,0,0,1-7.86,18.87,26.74,26.74,0,0,1-37.87,0Zm7-30.8a16.38,16.38,0,0,0-4.92,11.93,16.83,16.83,0,0,0,33.65,0,16.84,16.84,0,0,0-28.73-11.93Z"/><path class="cls-1" d="M424.07,74.37V47.64a25.79,25.79,0,0,1,7.87-18.95,26.76,26.76,0,0,1,37.87,0,25.82,25.82,0,0,1,7.86,19V74.37h-10V47.64a16.83,16.83,0,1,0-33.65,0V74.37Z"/><path class="cls-2" d="M97.61,47.58A48.82,48.82,0,0,1,50,97.52,48.21,48.21,0,0,1,41.45,97a1.92,1.92,0,0,1-1.1-3.23l34.06-34.9a9.76,9.76,0,0,0-14-13.63L21.64,85a3.84,3.84,0,0,1-5.29.19A48.74,48.74,0,0,1,47.62,0a48.17,48.17,0,0,1,8.53.52,1.92,1.92,0,0,1,1.11,3.24L23.18,38.7A9.78,9.78,0,0,0,25,53.8a10,10,0,0,0,12.39-1.68L76,12.54a3.83,3.83,0,0,1,5.28-.18A48.52,48.52,0,0,1,97.61,47.58Z"/></svg>